<?xml version="1.0" encoding="UTF-8"?>
<svg width="31px" height="35px" viewBox="0 0 31 35" version="1.1" xmlns="http://www.w3.org/2000/svg" xmlns:xlink="http://www.w3.org/1999/xlink">
    <!-- Generator: Sketch 48.2 (47327) - http://www.bohemiancoding.com/sketch -->
    <title>Group 8</title>
    <desc>Created with Sketch.</desc>
    <defs></defs>
    <g id="Home-Page-UPDATE" stroke="none" stroke-width="1" fill="none" fill-rule="evenodd" transform="translate(-593.000000, -3413.000000)">
        <g id="FOOTER" transform="translate(0.000000, 3227.000000)" fill="#FFFFFF">
            <g id="Group-10">
                <g id="Group-11" transform="translate(560.000000, 165.000000)">
                    <g id="Group-7" transform="translate(33.000000, 21.612121)">
                        <g id="Group-8">
                            <path d="M1.71102135,31.9059768 L29.5811845,31.9059768 L29.5811845,11.5330486 L1.71102135,11.5330486 L1.71102135,31.9059768 Z M5.51149814,4.7420726 L5.51149814,6.77936542 C5.51149814,7.18682398 5.79526708,7.45846302 6.14491094,7.45846302 L9.94538773,7.45846302 C10.295665,7.45846302 10.5788005,7.18682398 10.5788005,6.77936542 L10.5788005,4.7420726 L20.7134053,4.7420726 L20.7134053,6.77936542 C20.7134053,7.18682398 20.9971742,7.45846302 21.3468181,7.45846302 L25.1472949,7.45846302 C25.4975722,7.45846302 25.7807077,7.18682398 25.7807077,6.77936542 L25.7807077,4.7420726 L29.5811845,4.7420726 L29.5811845,10.1748534 L1.71102135,10.1748534 L1.71102135,4.7420726 L5.51149814,4.7420726 Z M6.77832374,6.10026781 L9.31197493,6.10026781 L9.31197493,2.02568219 L6.77832374,2.02568219 L6.77832374,6.10026781 Z M21.9802309,6.10026781 L24.5138821,6.10026781 L24.5138821,2.02568219 L21.9802309,2.02568219 L21.9802309,6.10026781 Z M30.2145973,3.3838774 L25.7807077,3.3838774 L25.7807077,1.34658458 C25.7807077,1.00703578 25.4975722,0.667486978 25.1472949,0.667486978 L21.3468181,0.667486978 C20.9971742,0.667486978 20.7134053,1.00703578 20.7134053,1.34658458 L20.7134053,3.3838774 L10.5788005,3.3838774 L10.5788005,1.34658458 C10.5788005,1.00703578 10.295665,0.667486978 9.94538773,0.667486978 L6.14491094,0.667486978 C5.79526708,0.667486978 5.51149814,1.00703578 5.51149814,1.34658458 L5.51149814,3.3838774 L1.07760855,3.3838774 C0.72796469,3.3838774 0.444195756,3.7234262 0.444195756,4.062975 L0.444195756,32.5850744 C0.444195756,32.9925329 0.72796469,33.264172 1.07760855,33.264172 L30.2145973,33.264172 C30.5648746,33.264172 30.8480101,32.9925329 30.8480101,32.5850744 L30.8480101,4.062975 C30.8480101,3.7234262 30.5648746,3.3838774 30.2145973,3.3838774 L30.2145973,3.3838774 Z" id="Fill-2449"></path>
                            <path d="M16.2795157,21.0404151 L21.9802309,21.0404151 L21.9802309,16.9658295 L16.2795157,16.9658295 L16.2795157,21.0404151 Z M16.2795157,26.4731959 L21.9802309,26.4731959 L21.9802309,22.3986103 L16.2795157,22.3986103 L16.2795157,26.4731959 Z M9.31197493,26.4731959 L15.0126901,26.4731959 L15.0126901,22.3986103 L9.31197493,22.3986103 L9.31197493,26.4731959 Z M9.31197493,21.0404151 L15.0126901,21.0404151 L15.0126901,16.9658295 L9.31197493,16.9658295 L9.31197493,21.0404151 Z M27.6809461,16.9658295 C28.0312234,16.9658295 28.3143589,16.6941904 28.3143589,16.2867319 C28.3143589,15.9471831 28.0312234,15.6076343 27.6809461,15.6076343 L23.2470565,15.6076343 L23.2470565,13.5703415 C23.2470565,13.2307927 22.963921,12.8912439 22.6136437,12.8912439 C22.2639998,12.8912439 21.9802309,13.2307927 21.9802309,13.5703415 L21.9802309,15.6076343 L16.2795157,15.6076343 L16.2795157,13.5703415 C16.2795157,13.2307927 15.9963802,12.8912439 15.6461029,12.8912439 C15.2964591,12.8912439 15.0126901,13.2307927 15.0126901,13.5703415 L15.0126901,15.6076343 L9.31197493,15.6076343 L9.31197493,13.5703415 C9.31197493,13.2307927 9.02883941,12.8912439 8.67856214,12.8912439 C8.32891827,12.8912439 8.04514934,13.2307927 8.04514934,13.5703415 L8.04514934,15.6076343 L3.61125975,15.6076343 C3.26161588,15.6076343 2.97784695,15.9471831 2.97784695,16.2867319 C2.97784695,16.6941904 3.26161588,16.9658295 3.61125975,16.9658295 L8.04514934,16.9658295 L8.04514934,21.0404151 L3.61125975,21.0404151 C3.26161588,21.0404151 2.97784695,21.3799639 2.97784695,21.7195127 C2.97784695,22.1269713 3.26161588,22.3986103 3.61125975,22.3986103 L8.04514934,22.3986103 L8.04514934,26.4731959 L3.61125975,26.4731959 C3.26161588,26.4731959 2.97784695,26.8127447 2.97784695,27.1522936 C2.97784695,27.5597521 3.26161588,27.8313912 3.61125975,27.8313912 L8.04514934,27.8313912 L8.04514934,29.868684 C8.04514934,30.2761425 8.32891827,30.5477816 8.67856214,30.5477816 C9.02883941,30.5477816 9.31197493,30.2761425 9.31197493,29.868684 L9.31197493,27.8313912 L15.0126901,27.8313912 L15.0126901,29.868684 C15.0126901,30.2761425 15.2964591,30.5477816 15.6461029,30.5477816 C15.9963802,30.5477816 16.2795157,30.2761425 16.2795157,29.868684 L16.2795157,27.8313912 L21.9802309,27.8313912 L21.9802309,29.868684 C21.9802309,30.2761425 22.2639998,30.5477816 22.6136437,30.5477816 C22.963921,30.5477816 23.2470565,30.2761425 23.2470565,29.868684 L23.2470565,27.8313912 L27.6809461,27.8313912 C28.0312234,27.8313912 28.3143589,27.5597521 28.3143589,27.1522936 C28.3143589,26.8127447 28.0312234,26.4731959 27.6809461,26.4731959 L23.2470565,26.4731959 L23.2470565,22.3986103 L27.6809461,22.3986103 C28.0312234,22.3986103 28.3143589,22.1269713 28.3143589,21.7195127 C28.3143589,21.3799639 28.0312234,21.0404151 27.6809461,21.0404151 L23.2470565,21.0404151 L23.2470565,16.9658295 L27.6809461,16.9658295 L27.6809461,16.9658295 Z" id="Fill-2450"></path>
                        </g>
                    </g>
                </g>
            </g>
        </g>
    </g>
</svg>